<?xml version="1.0" encoding="utf-8"?>
<!-- Generator: Adobe Illustrator 23.0.0, SVG Export Plug-In . SVG Version: 6.00 Build 0)  -->
<svg version="1.1" id="Layer_1" xmlns="http://www.w3.org/2000/svg" xmlns:xlink="http://www.w3.org/1999/xlink" x="0px" y="0px"
	 viewBox="0 0 216 216" style="enable-background:new 0 0 216 216;" xml:space="preserve">
<polygon points="116.7,66.9 116.6,66.9 116.7,67.1 "/>
<path d="M166.2,19.4l-12.6,38L144,86.2l-0.1,0.2l5.7,49.5l-22.1-0.1c-0.5,1.5-1,3-1.6,4.6c-1.6,4.6-3.4,9.2-5.5,13.7
	c-0.8,1.8-1.7,3.5-2.5,5.2c-1.4,2.6-2.8,5.2-4.4,7.8c-1.2,2-2.5,3.9-3.9,5.7l44.4,0.2l3.4,26.3l42.1,0.2L166.2,19.4z"/>
<path d="M148.9,16.6l-34.3-0.2l-0.6,0l-13.5,40.7L70,148.9c-0.8,1.7-1.7,3.3-2.6,4.8c-1.4,2.2-3.1,4.1-4.9,5.5
	c-1.9,1.4-4,2.1-6.5,2.1c-2.2,0-3.8-0.7-4.7-2c-0.9-1.3-1.4-3-1.4-5.1c-0.1-2.1,0.2-4.4,0.8-6.8c0.6-2.5,1.2-4.9,1.8-7.2l-36.7-0.2
	c-4.5,13.4-6.2,25.2-5.3,35.4c0.9,10.2,5.3,17.7,13.3,22.6c2.3,1.5,4.9,2.6,7.8,3.4c2.9,0.8,5.9,1.1,9.1,1.2c3.9,0,8-0.6,12.2-1.8
	c3.5-1,7.2-2.4,10.9-4.3c8.2-4.1,15.8-10.1,22.9-17.8c0.9-0.9,1.7-1.8,2.5-2.7c0.9-1,1.7-2,2.5-3.1c1.4-1.8,2.7-3.7,3.9-5.7
	c1.6-2.6,3-5.2,4.4-7.8c0.9-1.7,1.7-3.5,2.5-5.2c2-4.5,3.9-9,5.5-13.7c0.5-1.5,1-3.1,1.6-4.6c1-3.1,2.1-6.1,3.1-9.1l13.4-40.3
	l0.1-0.2l9.6-28.8l12.6-38l0.8-2.4L148.9,16.6z"/>
</svg>
